<?xml version="1.0" encoding="UTF-8"?>
<svg width="191px" height="44px" viewBox="0 0 191 44" version="1.1" xmlns="http://www.w3.org/2000/svg" xmlns:xlink="http://www.w3.org/1999/xlink">
    <!-- Generator: sketchtool 53.2 (72643) - https://sketchapp.com -->
    <title>B9E5959F-D46C-42B2-815D-4FDC7D08CC42@2x</title>
    <desc>Created with sketchtool.</desc>
    <g id="Footer" stroke="none" stroke-width="1" fill="none" fill-rule="evenodd">
        <g id="Approach-1---Euro-payment" transform="translate(-999.000000, -1416.000000)">
            <g id="Group-11" transform="translate(1000.000000, 1417.000000)">
                <text id="as-of-3/5/2019-Click" font-family="ArialMT, Arial" font-size="7" font-weight="normal" line-spacing="12" letter-spacing="0.100000001" fill="#005B78">
                    <tspan x="134.615674" y="22">as of 1/17/2020</tspan>
                    <tspan x="133.108952" y="34">Click for Profil</tspan>
                    <tspan x="177.881315" y="34" letter-spacing="0.1166667">e</tspan>
                </text>
                <text id="BBB-Ratings:-A+" font-family="Arial-BoldMT, Arial" font-size="8" font-weight="bold" line-spacing="11" letter-spacing="0.100000001" fill="#005B78">
                    <tspan x="124.278013" y="11">BBB Ratings: A</tspan>
                    <tspan x="184.935826" y="11" letter-spacing="0.1142857">+</tspan>
                </text>
                <g id="bbb-accredited-business-seeklogo.com">
                    <path d="M38.0437691,0.1728375 L105.991689,0.1728375 C109.261111,0.1728375 111.911152,2.8169625 111.911152,6.0790875 L111.911152,35.9208375 C111.911152,39.1829625 109.261111,41.8270875 105.991689,41.8270875 L38.0437691,41.8270875 L38.0437691,0.1728375 Z" id="Fill-1" fill="#005B78"></path>
                    <polygon id="Fill-3" fill="#005B78" points="26.1011866 25.49925 12.3793074 25.49925 11.8824483 27.13575 15.5404886 27.13575 16.2369181 29.393625 22.2484617 29.393625 22.9448913 27.13575 26.5980456 27.13575"></polygon>
                    <path d="M14.6208483,16.307025 C14.1119624,17.006775 13.9078819,17.86065 14.0409289,18.71415 C14.1784859,19.568025 14.6422711,20.319525 15.3409557,20.827275 L18.6257879,23.2059 C18.8016805,23.33415 18.9159356,23.519025 18.9490094,23.735025 C18.9847141,23.9484 18.9324725,24.15915 18.8065664,24.337275 L19.3007946,24.692775 L21.036043,22.3074 C21.4400698,21.747525 21.6516671,21.090525 21.6516671,20.41215 C21.6516671,20.243775 21.6396403,20.068275 21.6133315,19.89765 C21.4757745,19.043775 21.0123651,18.294525 20.3133047,17.786775 L17.0311034,15.40815 C16.8548349,15.280275 16.7387007,15.092775 16.705251,14.879025 C16.6981101,14.8344 16.6936,14.79165 16.6936,14.751525 C16.6936,14.580525 16.7480966,14.4144 16.8480698,14.27715 L16.3534658,13.919025 L14.6208483,16.307025" id="Fill-5" fill="#005B78"></path>
                    <path d="M16.6005799,6.73755 C16.0090094,7.548675 15.7045799,8.501925 15.7045799,9.48405 C15.7045799,9.73305 15.7237477,9.98205 15.7617074,10.23105 C15.9612779,11.468925 16.6291436,12.5553 17.6465396,13.29255 L21.7728752,16.2738 C22.3170899,16.66755 22.6760161,17.2533 22.7831302,17.915175 C22.8068081,18.04755 22.816204,18.182925 22.816204,18.315675 C22.816204,18.842175 22.6500832,19.352175 22.3336268,19.786425 L22.7308886,20.0733 L25.9822711,15.588675 C26.7170362,14.57355 27.016204,13.3353 26.8166336,12.095175 C26.621949,10.856925 25.9514523,9.770925 24.9340564,9.0333 L19.9519356,5.4213 C19.635855,5.193675 19.4291436,4.859175 19.3697611,4.477425 C19.3081235,4.095675 19.4005799,3.713925 19.6264591,3.39855 L19.2344591,3.113925 L16.6005799,6.73755 Z" id="Fill-7" fill="#005B78"></path>
                    <path d="M12.0204188,37.2791625 C12.8070497,37.2791625 13.2802309,37.0042875 13.2802309,36.4039125 L13.2802309,36.3802875 C13.2802309,35.8372875 12.873949,35.5027875 11.9632913,35.5027875 L9.90256644,35.5027875 L9.90256644,37.2791625 L12.0204188,37.2791625 Z M11.5449826,34.0252875 C12.3316134,34.0252875 12.8284725,33.7714125 12.8284725,33.1714125 L12.8284725,33.1477875 C12.8284725,32.6164125 12.4124188,32.3179125 11.6614926,32.3179125 L9.90256644,32.3179125 L9.90256644,34.0252875 L11.5449826,34.0252875 Z M8.16731812,30.7571625 L11.9275866,30.7571625 C12.8547812,30.7571625 13.5820295,31.0132875 14.0454389,31.4737875 C14.4163919,31.8435375 14.5994255,32.2961625 14.5994255,32.8492875 L14.5994255,32.8702875 C14.5994255,33.7834125 14.1145933,34.2907875 13.534298,34.6136625 C14.4712644,34.9717875 15.0508081,35.5144125 15.0508081,36.5985375 L15.0508081,36.6221625 C15.0508081,38.0974125 13.8481235,38.8372875 12.0204188,38.8372875 L8.16731812,38.8372875 L8.16731812,30.7571625 Z" id="Fill-9" fill="#005B78"></path>
                    <path d="M19.6764832,37.2791625 C20.4631141,37.2791625 20.9385503,37.0042875 20.9385503,36.4039125 L20.9385503,36.3802875 C20.9385503,35.8372875 20.5322685,35.5027875 19.6193557,35.5027875 L17.5608859,35.5027875 L17.5608859,37.2791625 L19.6764832,37.2791625 Z M19.203302,34.0252875 C19.9899329,34.0252875 20.4845369,33.7714125 20.4845369,33.1714125 L20.4845369,33.1477875 C20.4845369,32.6164125 20.0684832,32.3179125 19.317557,32.3179125 L17.5608859,32.3179125 L17.5608859,34.0252875 L19.203302,34.0252875 Z M15.8256376,30.7571625 L19.583651,30.7571625 C20.5082148,30.7571625 21.240349,31.0132875 21.7015034,31.4737875 C22.0702013,31.8435375 22.2554899,32.2961625 22.2554899,32.8492875 L22.2554899,32.8702875 C22.2554899,33.7834125 21.7706577,34.2907875 21.1929933,34.6136625 C22.126953,34.9717875 22.7068725,35.5144125 22.7068725,36.5985375 L22.7068725,36.6221625 C22.7068725,38.0974125 21.5041879,38.8372875 19.6764832,38.8372875 L15.8256376,38.8372875 L15.8256376,30.7571625 Z" id="Fill-11" fill="#005B78"></path>
                    <path d="M27.3325477,37.2791625 C28.1191785,37.2791625 28.5946148,37.0042875 28.5946148,36.4039125 L28.5946148,36.3802875 C28.5946148,35.8372875 28.187957,35.5027875 27.2776752,35.5027875 L25.2146953,35.5027875 L25.2146953,37.2791625 L27.3325477,37.2791625 Z M26.8593664,34.0252875 C27.6459973,34.0252875 28.1428564,33.7714125 28.1428564,33.1714125 L28.1428564,33.1477875 C28.1428564,32.6164125 27.7245477,32.3179125 26.9758765,32.3179125 L25.2146953,32.3179125 L25.2146953,34.0252875 L26.8593664,34.0252875 Z M23.481702,30.7571625 L27.2397154,30.7571625 C28.1669101,30.7571625 28.8964134,31.0132875 29.3575678,31.4737875 C29.7285208,31.8435375 29.9138094,32.2961625 29.9138094,32.8492875 L29.9138094,32.8702875 C29.9138094,33.7834125 29.4263463,34.2907875 28.8490577,34.6136625 C29.7879034,34.9717875 30.3629369,35.5144125 30.3629369,36.5985375 L30.3629369,36.6221625 C30.3629369,38.0974125 29.1602523,38.8372875 27.3325477,38.8372875 L23.481702,38.8372875 L23.481702,30.7571625 Z" id="Fill-13" fill="#005B78"></path>
                    <path d="M48.9212617,16.8643875 L47.9948188,14.6080125 L47.0683758,16.8643875 L48.9212617,16.8643875 Z M47.3074094,12.7693875 L48.7220671,12.7693875 L51.7103624,19.7766375 L50.1066577,19.7766375 L49.4692349,18.2158875 L46.5204027,18.2158875 L45.8829799,19.7766375 L44.3191141,19.7766375 L47.3074094,12.7693875 Z" id="Fill-15" fill="#FFFFFE"></path>
                    <path d="M51.5705128,16.3176375 L51.5705128,16.2977625 C51.5705128,14.3200125 53.0648483,12.7000125 55.2063785,12.7000125 C56.5210631,12.7000125 57.3080698,13.1372625 57.9556403,13.7732625 L56.9792107,14.8963875 C56.4410094,14.4092625 55.8937879,14.1111375 55.1962309,14.1111375 C54.0209826,14.1111375 53.1742174,15.0853875 53.1742174,16.2782625 L53.1742174,16.2977625 C53.1742174,17.4906375 54.0010631,18.4843875 55.1962309,18.4843875 C55.9933852,18.4843875 56.4816,18.1663875 57.0291973,17.6691375 L58.0056268,18.6535125 C57.2881503,19.4188875 56.490996,19.8958875 55.1466201,19.8958875 C53.0945396,19.8958875 51.5705128,18.3152625 51.5705128,16.3176375" id="Fill-17" fill="#FFFFFE"></path>
                    <path d="M58.2631141,16.3176375 L58.2631141,16.2977625 C58.2631141,14.3200125 59.7578255,12.7000125 61.8989799,12.7000125 C63.2144161,12.7000125 64.0014228,13.1372625 64.6486174,13.7732625 L63.6725638,14.8963875 C63.1343624,14.4092625 62.5867651,14.1111375 61.8892081,14.1111375 C60.7135839,14.1111375 59.8671946,15.0853875 59.8671946,16.2782625 L59.8671946,16.2977625 C59.8671946,17.4906375 60.6936644,18.4843875 61.8892081,18.4843875 C62.6859866,18.4843875 63.1738255,18.1663875 63.7221745,17.6691375 L64.698604,18.6535125 C63.9807517,19.4188875 63.184349,19.8958875 61.8395973,19.8958875 C59.7871409,19.8958875 58.2631141,18.3152625 58.2631141,16.3176375" id="Fill-19" fill="#FFFFFE"></path>
                    <path d="M68.5517047,16.1982375 C69.2988725,16.1982375 69.7277047,15.8007375 69.7277047,15.2142375 L69.7277047,15.1943625 C69.7277047,14.5384875 69.2688054,14.2006125 68.5223893,14.2006125 L66.9976107,14.2006125 L66.9976107,16.1982375 L68.5517047,16.1982375 Z M65.4641879,12.8191125 L68.6516779,12.8191125 C69.5382819,12.8191125 70.2253154,13.0673625 70.6834631,13.5248625 C71.0724564,13.9122375 71.2817987,14.4589875 71.2817987,15.1148625 L71.2817987,15.1347375 C71.2817987,16.2578625 70.6736913,16.9636125 69.7870872,17.2917375 L71.4907651,19.7764875 L69.6976376,19.7764875 L68.2029262,17.5501125 L68.1833826,17.5501125 L66.9976107,17.5501125 L66.9976107,19.7764875 L65.4641879,19.7764875 L65.4641879,12.8191125 Z" id="Fill-21" fill="#FFFFFE"></path>
                    <polygon id="Fill-23" fill="#FFFFFE" points="72.2065879 12.819225 77.4660779 12.819225 77.4660779 14.18085 73.7306148 14.18085 73.7306148 15.59235 77.0184537 15.59235 77.0184537 16.9536 73.7306148 16.9536 73.7306148 18.414975 77.5160644 18.414975 77.5160644 19.7766 72.2065879 19.7766"></polygon>
                    <path d="M81.140843,18.3947625 C82.396145,18.3947625 83.2432859,17.5502625 83.2432859,16.3176375 L83.2432859,16.2977625 C83.2432859,15.0651375 82.396145,14.2003875 81.140843,14.2003875 L79.955447,14.2003875 L79.955447,18.3947625 L81.140843,18.3947625 Z M78.4220242,12.8192625 L81.140843,12.8192625 C83.3327356,12.8192625 84.8469906,14.3200125 84.8469906,16.2778875 L84.8469906,16.2977625 C84.8469906,18.2556375 83.3327356,19.7766375 81.140843,19.7766375 L78.4220242,19.7766375 L78.4220242,12.8192625 Z" id="Fill-25" fill="#FFFFFE"></path>
                    <polygon id="Fill-27" fill="#FFFFFE" points="85.8213154 19.77675 87.3554899 19.77675 87.3554899 12.819375 85.8213154 12.819375"></polygon>
                    <polygon id="Fill-29" fill="#FFFFFE" points="90.2637315 14.230575 88.1421208 14.230575 88.1421208 12.819075 93.9195168 12.819075 93.9195168 14.230575 91.797906 14.230575 91.797906 19.77645 90.2637315 19.77645"></polygon>
                    <polygon id="Fill-30" fill="#FFFFFE" points="94.6357906 12.819225 99.8952805 12.819225 99.8952805 14.18085 96.1598174 14.18085 96.1598174 15.59235 99.4476564 15.59235 99.4476564 16.9536 96.1598174 16.9536 96.1598174 18.414975 99.9452671 18.414975 99.9452671 19.7766 94.6357906 19.7766"></polygon>
                    <path d="M103.570046,18.3947625 C104.825348,18.3947625 105.672489,17.5502625 105.672489,16.3176375 L105.672489,16.2977625 C105.672489,15.0651375 104.825348,14.2003875 103.570046,14.2003875 L102.38465,14.2003875 L102.38465,18.3947625 L103.570046,18.3947625 Z M100.851227,12.8192625 L103.570046,12.8192625 C105.761938,12.8192625 107.276193,14.3200125 107.276193,16.2778875 L107.276193,16.2977625 C107.276193,18.2556375 105.761938,19.7766375 103.570046,19.7766375 L100.851227,19.7766375 L100.851227,12.8192625 Z" id="Fill-31" fill="#FFFFFE"></path>
                    <path d="M48.2338148,29.96595 C48.9110765,29.96595 49.3196134,29.72745 49.3196134,29.210325 L49.3196134,29.190825 C49.3196134,28.723575 48.9708349,28.4352 48.184204,28.4352 L46.410996,28.4352 L46.410996,29.96595 L48.2338148,29.96595 Z M47.8256537,27.162825 C48.5029154,27.162825 48.930996,26.9442 48.930996,26.42745 L48.930996,26.40795 C48.930996,25.95045 48.5724456,25.69245 47.925251,25.69245 L46.410996,25.69245 L46.410996,27.162825 L47.8256537,27.162825 Z M44.9166604,24.350325 L48.1541369,24.350325 C48.9512913,24.350325 49.5785664,24.56895 49.9773315,24.96645 C50.2956671,25.284825 50.4553987,25.6722 50.4553987,26.1492 L50.4553987,26.169075 C50.4553987,26.954325 50.0367141,27.39195 49.5387275,27.6702 C50.3456537,27.978075 50.8436403,28.44495 50.8436403,29.379825 L50.8436403,29.399325 C50.8436403,30.6717 49.8078282,31.3077 48.2338148,31.3077 L44.9166604,31.3077 L44.9166604,24.350325 Z" id="Fill-32" fill="#FFFFFE"></path>
                    <path d="M51.5398443,28.3260375 L51.5398443,24.3502875 L53.0740188,24.3502875 L53.0740188,28.2862875 C53.0740188,29.4191625 53.6415356,30.0056625 54.5777503,30.0056625 C55.5143409,30.0056625 56.0822336,29.4394125 56.0822336,28.3357875 L56.0822336,24.3502875 L57.6164081,24.3502875 L57.6164081,28.2761625 C57.6164081,30.3832875 56.4310121,31.4171625 54.5582067,31.4171625 C52.6854013,31.4171625 51.5398443,30.3735375 51.5398443,28.3260375" id="Fill-33" fill="#FFFFFE"></path>
                    <path d="M58.2425557,30.294075 L59.1490792,29.210325 C59.7767302,29.72745 60.4336966,30.0552 61.230851,30.0552 C61.858502,30.0552 62.2373477,29.80695 62.2373477,29.399325 L62.2373477,29.379825 C62.2373477,28.9917 61.9979383,28.79295 60.8324617,28.494825 C59.4279517,28.137075 58.5214282,27.7497 58.5214282,26.367825 L58.5214282,26.348325 C58.5214282,25.0857 59.5373208,24.25095 60.9621262,24.25095 C61.9780188,24.25095 62.8443275,24.56895 63.5520322,25.135575 L62.7548779,26.288325 C62.1373745,25.8612 61.529643,25.60245 60.9418309,25.60245 C60.3543946,25.60245 60.045455,25.87095 60.045455,26.208825 L60.045455,26.2287 C60.045455,26.6862 60.344247,26.835075 61.5495624,27.143325 C62.9642201,27.510825 63.7613745,28.017825 63.7613745,29.230575 L63.7613745,29.25045 C63.7613745,30.631575 62.7048913,31.407075 61.2007839,31.407075 C60.1454282,31.407075 59.079549,31.0392 58.2425557,30.294075" id="Fill-34" fill="#FFFFFE"></path>
                    <polygon id="Fill-35" fill="#FFFFFE" points="64.7066846 31.308 66.2401074 31.308 66.2401074 24.350625 64.7066846 24.350625"></polygon>
                    <polygon id="Fill-36" fill="#FFFFFE" points="67.5247624 24.350475 68.9394201 24.350475 72.2065879 28.6341 72.2065879 24.350475 73.720843 24.350475 73.720843 31.30785 72.4159302 31.30785 69.0390174 26.884725 69.0390174 31.30785 67.5247624 31.30785"></polygon>
                    <polygon id="Fill-37" fill="#FFFFFE" points="74.9351034 24.350475 80.1945933 24.350475 80.1945933 25.7121 76.4591302 25.7121 76.4591302 27.1236 79.7462174 27.1236 79.7462174 28.48485 76.4591302 28.48485 76.4591302 29.946225 80.2445799 29.946225 80.2445799 31.30785 74.9351034 31.30785"></polygon>
                    <path d="M80.6717584,30.294075 L81.5782819,29.210325 C82.2059329,29.72745 82.8628993,30.0552 83.6600537,30.0552 C84.2877047,30.0552 84.6657987,29.80695 84.6657987,29.399325 L84.6657987,29.379825 C84.6657987,28.9917 84.4271409,28.79295 83.2616644,28.494825 C81.8571544,28.137075 80.9506309,27.7497 80.9506309,26.367825 L80.9506309,26.348325 C80.9506309,25.0857 81.9665235,24.25095 83.3905772,24.25095 C84.4072215,24.25095 85.2735302,24.56895 85.9812349,25.135575 L85.1840805,26.288325 C84.5665772,25.8612 83.9588456,25.60245 83.3710336,25.60245 C82.7835973,25.60245 82.4746577,25.87095 82.4746577,26.208825 L82.4746577,26.2287 C82.4746577,26.6862 82.7734497,26.835075 83.9787651,27.143325 C85.3934228,27.510825 86.1905772,28.017825 86.1905772,29.230575 L86.1905772,29.25045 C86.1905772,30.631575 85.134094,31.407075 83.6299866,31.407075 C82.5746309,31.407075 81.5087517,31.0392 80.6717584,30.294075" id="Fill-38" fill="#FFFFFE"></path>
                    <path d="M86.4877154,30.294075 L87.3942389,29.210325 C88.0218899,29.72745 88.6796081,30.0552 89.4760107,30.0552 C90.1036617,30.0552 90.4825074,29.80695 90.4825074,29.399325 L90.4825074,29.379825 C90.4825074,28.9917 90.243098,28.79295 89.0783732,28.494825 C87.6731114,28.137075 86.7665879,27.7497 86.7665879,26.367825 L86.7665879,26.348325 C86.7665879,25.0857 87.7824805,24.25095 89.2072859,24.25095 C90.2231785,24.25095 91.0902389,24.56895 91.7971919,25.135575 L91.0007893,26.288325 C90.3825342,25.8612 89.7748027,25.60245 89.1877423,25.60245 C88.5995544,25.60245 88.2913664,25.87095 88.2913664,26.208825 L88.2913664,26.2287 C88.2913664,26.6862 88.5901584,26.835075 89.7954738,27.143325 C91.2097557,27.510825 92.0065342,28.017825 92.0065342,29.230575 L92.0065342,29.25045 C92.0065342,30.631575 90.9508027,31.407075 89.4466953,31.407075 C88.3905879,31.407075 87.3247087,31.0392 86.4877154,30.294075" id="Fill-39" fill="#FFFFFE"></path>
                    <path d="M31.6602201,37.8684 C31.7928913,37.8684 31.8718174,37.803525 31.8718174,37.702275 L31.8718174,37.69665 C31.8718174,37.59015 31.7928913,37.5309 31.6602201,37.5309 L31.3952537,37.5309 L31.3952537,37.8684 L31.6602201,37.8684 Z M31.1923007,37.3479 L31.6684886,37.3479 C31.8094282,37.3479 31.919549,37.390275 31.9928376,37.4634 C32.0492134,37.51665 32.0800322,37.592775 32.0800322,37.6854 L32.0800322,37.691025 C32.0800322,37.8624 31.9789315,37.96965 31.8323544,38.01165 L32.1198711,38.414025 L31.8770792,38.414025 L31.6181262,38.045775 L31.3952537,38.045775 L31.3952537,38.414025 L31.1923007,38.414025 L31.1923007,37.3479 Z M32.5171329,37.9104 L32.5171329,37.90515 C32.5171329,37.401525 32.1251329,36.993525 31.6064752,36.993525 C31.0851866,36.993525 30.6905557,37.40715 30.6905557,37.9104 L30.6905557,37.916025 C30.6905557,38.41965 31.0821799,38.827275 31.6008376,38.827275 C32.122502,38.827275 32.5171329,38.414025 32.5171329,37.9104 L32.5171329,37.9104 Z M30.5834416,37.916025 L30.5834416,37.9104 C30.5834416,37.356525 31.0344483,36.892275 31.6064752,36.892275 C32.1788779,36.892275 32.624247,37.350525 32.624247,37.90515 L32.624247,37.9104 C32.624247,38.46465 32.1732403,38.928525 31.6008376,38.928525 C31.0288107,38.928525 30.5834416,38.4699 30.5834416,37.916025 L30.5834416,37.916025 Z" id="Fill-40" fill="#005B78"></path>
                    <path d="M111.911189,35.9209125 C111.911189,39.1830375 109.261149,41.8271625 105.991726,41.8271625 L38.0434309,41.8271625 L6.00804832,41.8271625 C2.73900134,41.8271625 0.0885852349,39.1830375 0.0885852349,35.9209125 L0.0885852349,6.0791625 C0.0885852349,2.8170375 2.73900134,0.1729125 6.00804832,0.1729125 L38.0438067,0.1729125 L105.991726,0.1729125 C109.261149,0.1729125 111.911189,2.8170375 111.911189,6.0791625 L111.911189,35.9209125 Z" id="Stroke-41" stroke="#005B78" stroke-width="0.5"></path>
                </g>
            </g>
        </g>
    </g>
</svg>