<?xml version="1.0" encoding="UTF-8"?>
<svg version="1.1" viewBox="0 0 37 24" xmlns="http://www.w3.org/2000/svg">
<title>Paypal</title>
<desc>Created with Sketch.</desc>
<g fill="none" fill-rule="evenodd">
<g transform="translate(-1183 -1475)">
<g transform="translate(1183 1475)">
<path d="m36.75 22.72v-21.44c0-0.57105-0.442-1.0297-0.98304-1.0297h-34.534c-0.54112 0-0.98333 0.45872-0.98333 1.0297v21.44c0 0.57112 0.44237 1.0303 0.98333 1.0303h34.534c0.54089 0 0.98304-0.4591 0.98304-1.0303z" fill="#fff" stroke="#E7E7E7" stroke-width=".5"/>
<path d="m27.19 12.99c-0.099072 0.06357-0.20388 0.11817-0.31367 0.16497-0.14765 0.06045-0.28727 0.09243-0.41618 0.09243-0.19929 0-0.35153-0.02925-0.45481-0.09009-0.10328-0.05811-0.15722-0.15912-0.1553-0.30342 0-0.16653 0.037869-0.2964 0.11514-0.3978 0.079181-0.0975 0.19623-0.17628 0.34121-0.23478 0.14421-0.05031 0.3217-0.09087 0.52596-0.12012 0.18284-0.0234 0.54279-0.06591 0.5887-0.0663 0.046285 0 0.076886-0.02613 0.05623 0.09867-0.008798 0.05421-0.11323 0.48984-0.16104 0.68718-0.013771 0.05967-0.091039 0.14625-0.12623 0.16926m1.4134-3.0584c-0.30372-0.17238-0.77766-0.25974-1.4272-0.25974-0.32093 0-0.64301 0.02613-0.96701 0.07761-0.23793 0.03666-0.26203 0.0429-0.40968 0.07527-0.30372 0.06786-0.35077 0.37791-0.35077 0.37791l-0.09716 0.40911c-0.055465 0.2613 0.090657 0.25038 0.1553 0.23049 0.13273-0.04095 0.20465-0.0819 0.47547-0.1443 0.25858-0.05928 0.53132-0.10452 0.74935-0.10257 0.31979 0 0.56269 0.03588 0.72449 0.10452 0.16142 0.07215 0.24175 0.19422 0.24175 0.36933 7.65e-4 0.04173 0.0015301 0.08073-0.013006 0.11544-0.013388 0.03198-0.039017 0.06318-0.1159 0.07371-0.45558 0.0273-0.78302 0.06981-1.1778 0.1287-0.38864 0.05577-0.72908 0.15132-1.0137 0.28392-0.30334 0.13689-0.53055 0.32058-0.687 0.55341-0.15224 0.23361-0.22875 0.51675-0.22951 0.8502 0 0.31512 0.11093 0.57252 0.32591 0.77181 0.21804 0.19695 0.50072 0.29445 0.84269 0.29445 0.21383-0.00156 0.38137-0.01755 0.5011-0.04797 0.11858-0.03042 0.24825-0.07371 0.38481-0.13416 0.10213-0.04368 0.21268-0.10647 0.32897-0.18564 0.11667-0.07917 0.19738-0.13572 0.30104-0.20514l0.0038251 0.00663-0.029454 0.13143c-3.825e-4 0.00117-0.0015301 0.00195-0.0015301 0.00273l7.651e-4 0.00273c-0.033662 0.15795 0.060055 0.28899 0.21306 0.30537l0.0022951 0.00234h0.013006l0.0011475 7.8e-4c0.10175 0 0.45099 0 0.61433-7.8e-4h0.11361c0.0076504 0 0.0087979-0.00234 0.011858-0.00468 0.15607-0.01911 0.3064-0.14937 0.34197-0.30576l0.58334-2.5662c0.013006-0.06045 0.023716-0.12987 0.029836-0.2106 0.0072679-0.08112 0.016066-0.14742 0.013771-0.19617 0.0011476-0.3627-0.15186-0.63141-0.45405-0.80418" fill="#2997D8"/>
<path d="m18.066 10.041s-1.1445 2.0011-1.2566 2.2004c-0.061203 0.10803-0.12317 0.03978-0.13426-3.9e-4 -0.0076504-0.04875-0.35345-2.1867-0.35345-2.1867-0.039399-0.1716-0.21612-0.31941-0.43645-0.31863l-0.71302 0.00117c-0.1729 0-0.28039 0.14001-0.24175 0.31005 0 0 0.54547 3.1528 0.65181 3.8938 0.05317 0.40989-0.0053553 0.48321-0.0053553 0.48321l-0.70728 1.2574c-0.10366 0.16965-0.04705 0.31005 0.1247 0.31005l0.82662-7.8e-4c0.17137 0 0.39782-0.13884 0.50072-0.30966l3.181-5.4869s0.30448-0.46839 0.023716-0.46449c-0.19126 0.00312-0.95897 0-0.95897 0-0.17022 0-0.39514 0.14118-0.50148 0.31161z" fill="#253B80"/>
<path d="m10.249 9.2162c-0.099455-0.19734-0.24787-0.35763-0.43837-0.47853-0.19661-0.12441-0.42613-0.20943-0.69312-0.2613-0.26891-0.04875-0.58258-0.07254-0.94291-0.07644l-1.667 0.00156c-0.17366 0.00234-0.34274 0.1404-0.38328 0.31005l-1.1242 4.9834c-0.038634 0.17043 0.069236 0.31122 0.24213 0.31122h0.79946c0.17175 0 0.3435-0.13728 0.38175-0.31122l0.27541-1.2094c0.036722-0.16926 0.20771-0.30927 0.38061-0.30927h0.22836c0.97695-0.00117 1.7347-0.20475 2.279-0.6123 0.54356-0.40677 0.81553-0.94614 0.81438-1.6138 0.0011476-0.29328-0.04858-0.5382-0.15224-0.73398m-1.7248 1.6282c-0.24137 0.1794-0.57454 0.26988-1.0079 0.26988h-0.19585c-0.17252 0-0.28192-0.14001-0.24328-0.31122l0.2406-1.0565c0.036339-0.17004 0.20809-0.31122 0.38099-0.30966l0.26164-0.00156c0.30525 0 0.53706 0.05304 0.69427 0.15912 0.15377 0.10296 0.23257 0.26559 0.22913 0.48477 0.0045902 0.32994-0.11782 0.585-0.35957 0.76518" fill="#253B80"/>
<path d="m24.75 9.2341c-0.099837-0.19695-0.24978-0.35646-0.43951-0.4797-0.19508-0.12402-0.42651-0.21021-0.69465-0.26013-0.2647-0.04758-0.58066-0.07488-0.93947-0.07527l-1.6712 3.9e-4c-0.17213 0.00312-0.34044 0.14118-0.38061 0.31083l-1.1231 4.9842c-0.04093 0.16965 0.070383 0.31122 0.23946 0.31005l0.80176-0.00117c0.16984 0.00117 0.34312-0.13923 0.38367-0.30888l0.27082-1.209c0.037869-0.16965 0.21115-0.312 0.38367-0.30927h0.22798c0.9781 0 1.7366-0.20475 2.2798-0.61308 0.54165-0.40989 0.81362-0.94692 0.81362-1.6158-0.0015301-0.29172-0.05011-0.53781-0.15224-0.7332m-1.7236 1.6306c-0.23946 0.17745-0.57531 0.26676-1.0076 0.26676h-0.19853c-0.17213 0.00156-0.28268-0.14001-0.24252-0.31005l0.23984-1.0577c0.035574-0.1677 0.21-0.31005 0.37984-0.30849l0.26203-0.00156c0.30678 0.00156 0.53629 0.05421 0.69465 0.15756 0.1553 0.10569 0.23066 0.26871 0.23181 0.48594 7.65e-4 0.33111-0.11935 0.58578-0.35957 0.76752" fill="#2997D8"/>
<path d="m12.686 12.987c-0.099072 0.06396-0.20388 0.11817-0.31405 0.16458-0.14689 0.06045-0.28765 0.09204-0.41656 0.09204-0.19776 0-0.35115-0.02847-0.45443-0.08931-0.1029-0.05811-0.15722-0.15912-0.15569-0.30381 0-0.16692 0.038252-0.29601 0.11667-0.3978 0.078416-0.09789 0.1947-0.17628 0.33968-0.23478 0.14459-0.05031 0.32246-0.09048 0.52711-0.12012 0.18208-0.02379 0.54203-0.06552 0.58831-0.0663 0.045902 0 0.076504-0.02613 0.05623 0.09867-0.0091804 0.0546-0.11284 0.49023-0.16104 0.68757-0.014153 0.06006-0.091422 0.14586-0.12623 0.16926m1.4126-3.0588c-0.30334-0.17238-0.77728-0.25974-1.4264-0.25974-0.32093 0-0.6434 0.02613-0.96739 0.07722-0.23793 0.03744-0.26164 0.04368-0.40968 0.07605-0.30372 0.06786-0.35039 0.37791-0.35039 0.37791l-0.097542 0.40833c-0.055848 0.26208 0.091422 0.25116 0.15645 0.23049 0.13197-0.04056 0.20427-0.08034 0.47432-0.14313 0.2582-0.06045 0.53132-0.10491 0.74974-0.10335 0.3194 0 0.5623 0.03549 0.72411 0.10413 0.16181 0.07254 0.24137 0.195 0.24137 0.37011 0.0011476 0.04134 0.0022952 0.08112-0.012623 0.11466-0.013388 0.03276-0.039017 0.06357-0.11552 0.07371-0.45596 0.02808-0.78263 0.07059-1.1782 0.12909-0.38902 0.05577-0.72908 0.15132-1.0137 0.28392-0.30372 0.13767-0.53017 0.32097-0.68662 0.5538-0.15301 0.23361-0.22913 0.51675-0.22913 0.84981 0 0.31551 0.11093 0.57213 0.32552 0.77181 0.21765 0.19695 0.50072 0.29445 0.84231 0.29445 0.21421-0.00156 0.38099-0.01755 0.50148-0.04797 0.11858-0.03042 0.24787-0.07371 0.38443-0.13416 0.10252-0.04368 0.21268-0.10686 0.32935-0.18564 0.11629-0.07917 0.19776-0.13533 0.30104-0.20475l0.0034427 0.00663-0.029454 0.13065c0 0.00156-0.0011476 0.00234-0.0011476 0.0039l7.65e-4 0.00234c-0.033279 0.15795 0.059673 0.28899 0.21306 0.3042l0.0015301 0.00312h0.013771l3.825e-4 0.00156c0.10213 0 0.45137-7.8e-4 0.61471-0.00156h0.11399c0.0080329 0 0.0087979-0.00273 0.011476-0.00468 0.15645-0.01989 0.3064-0.14898 0.34197-0.30498l0.58334-2.5674c0.013006-0.05967 0.024099-0.12948 0.029836-0.21021 0.0076504-0.08112 0.016448-0.14781 0.013771-0.19539 0.00153-0.36348-0.15186-0.63219-0.45443-0.80496" fill="#253B80"/>
<path d="m31.357 8.4598h-0.71493-7.65e-4 -7.651e-4c-0.16028 0-0.32055 0.12402-0.37066 0.28275-0.0030601 0.00936-0.0095629 0.01755-0.012241 0.0273 0 0-0.014153 0.06747-0.039399 0.18291l-0.98613 4.5603c-0.024099 0.10764-0.040164 0.17862-0.044755 0.19617l0.0019126 0.00312c-0.032897 0.15717 0.059673 0.28431 0.21077 0.30069l0.0045902 0.00663h0.74132c0.16142 0 0.32285-0.12636 0.37181-0.2847 0.0026776-0.00897 0.0091805-0.01638 0.011093-0.02574l1.0711-4.9397-0.0015301-7.8e-4c0.035957-0.16848-0.070383-0.30888-0.24137-0.30888" fill="#2997D8"/>
</g>
</g>
</g>
</svg>
