<?xml version="1.0" encoding="utf-8"?>
<!-- Generator: Adobe Illustrator 22.0.1, SVG Export Plug-In . SVG Version: 6.00 Build 0)  -->
<svg version="1.1" id="Layer_1" xmlns="http://www.w3.org/2000/svg" xmlns:xlink="http://www.w3.org/1999/xlink" x="0px" y="0px"
	 viewBox="0 0 124.5 29" style="enable-background:new 0 0 124.5 29;" xml:space="preserve">
<style type="text/css">
	.st0{fill:#EE0006;}
	.st1{fill:#FFFFFF;}
	.st2{fill:#0C3F61;}
	.st3{opacity:0.47;fill:#2BFF23;}
	.st4{opacity:0.71;fill:#00429D;}
	.st5{opacity:0.36;fill:#1289FF;}
	.st6{fill:#FC6E0F;}
	.st7{fill:#FC6514;}
	.st8{fill:#B51616;}
	.st9{fill:#4AFF0D;}
	.st10{clip-path:url(#SVGID_2_);fill:#FC6514;}
	.st11{fill-rule:evenodd;clip-rule:evenodd;fill:none;stroke:#FC6514;stroke-miterlimit:10;}
	.st12{clip-path:url(#SVGID_4_);fill:#FFFFFF;}
	.st13{fill-rule:evenodd;clip-rule:evenodd;fill:none;stroke:#FFFFFF;stroke-miterlimit:10;}
</style>
<g>
	<path id="Fill-1_1_" class="st7" d="M49,8.8c0.4,0,0.7,0.1,0.9,0.3s0.4,0.5,0.4,0.9s-0.1,0.7-0.4,0.9c-0.2,0.2-0.5,0.3-0.9,0.3
		h-2.7v12.1c0,0.4-0.1,0.7-0.4,0.9c-0.2,0.2-0.6,0.3-0.9,0.3c-0.4,0-0.7-0.1-0.9-0.3s-0.3-0.5-0.3-0.9V11.2h-2.7
		c-0.4,0-0.7-0.1-0.9-0.3s-0.4-0.5-0.4-0.9s0.1-0.7,0.4-0.9c0.2-0.2,0.6-0.3,0.9-0.3H49z"/>
	<path id="Fill-3_1_" class="st7" d="M54.9,13.8c-0.4,0-0.8,0.1-1.2,0.2s-0.7,0.3-1.1,0.6c-0.3,0.3-0.6,0.5-0.8,0.9
		c-0.2,0.3-0.4,0.7-0.5,1.1h7c-0.1-0.4-0.2-0.8-0.4-1.1s-0.5-0.6-0.8-0.9S56.4,14.2,56,14C55.7,13.9,55.3,13.8,54.9,13.8 M54.9,11.4
		c0.8,0,1.6,0.2,2.4,0.5c0.7,0.3,1.4,0.8,2,1.3s1,1.2,1.3,1.9s0.5,1.5,0.5,2.3c0,0.4-0.1,0.7-0.3,0.9c-0.2,0.2-0.5,0.3-0.9,0.3h-8.5
		c0.1,0.4,0.2,0.8,0.4,1.1s0.5,0.6,0.8,0.9c0.3,0.2,0.7,0.4,1.1,0.6c0.4,0.1,0.8,0.2,1.2,0.2c0.5,0,1-0.1,1.4-0.3s0.8-0.4,1.1-0.8
		c0.1-0.1,0.3-0.2,0.5-0.3s0.3-0.1,0.5-0.1c0.3,0,0.6,0.1,0.8,0.4c0.2,0.2,0.3,0.5,0.3,0.8c0,0.2,0,0.3-0.1,0.5
		c0,0.2-0.1,0.3-0.3,0.4c-0.5,0.6-1.2,1-1.9,1.3s-1.5,0.4-2.4,0.4c-0.8,0-1.6-0.2-2.4-0.5c-0.7-0.3-1.4-0.8-2-1.3
		c-0.6-0.6-1-1.2-1.3-1.9c-0.3-0.7-0.5-1.5-0.5-2.4s0.2-1.7,0.5-2.4c0.3-0.7,0.8-1.4,1.3-2c0.6-0.6,1.2-1,2-1.3
		C53.3,11.6,54.1,11.4,54.9,11.4"/>
	<path id="Fill-5_1_" class="st7" d="M68.6,13.8c-0.4,0-0.8,0.1-1.2,0.2c-0.4,0.1-0.7,0.3-1.1,0.6s-0.6,0.5-0.8,0.9
		c-0.2,0.3-0.4,0.7-0.5,1.1h7c-0.1-0.4-0.2-0.8-0.4-1.1c-0.2-0.3-0.5-0.6-0.8-0.9s-0.7-0.4-1.1-0.6C69.4,13.9,69,13.8,68.6,13.8
		 M68.6,11.4c0.8,0,1.6,0.2,2.4,0.5c0.7,0.3,1.4,0.8,2,1.3s1,1.2,1.3,1.9s0.5,1.5,0.5,2.3c0,0.4-0.1,0.7-0.3,0.9
		c-0.2,0.2-0.5,0.3-0.9,0.3h-8.5c0.1,0.4,0.2,0.8,0.4,1.1c0.2,0.3,0.5,0.6,0.8,0.9c0.3,0.2,0.7,0.4,1.1,0.6c0.4,0.1,0.8,0.2,1.2,0.2
		c0.5,0,1-0.1,1.4-0.3s0.8-0.4,1.1-0.8c0.1-0.1,0.3-0.2,0.5-0.3s0.3-0.1,0.5-0.1c0.3,0,0.6,0.1,0.8,0.4c0.2,0.2,0.3,0.5,0.3,0.8
		c0,0.2,0,0.3-0.1,0.5c0,0.2-0.1,0.3-0.3,0.4c-0.5,0.6-1.2,1-1.9,1.3c-0.7,0.3-1.5,0.4-2.4,0.4c-0.8,0-1.6-0.2-2.4-0.5
		c-0.7-0.3-1.4-0.8-2-1.3c-0.6-0.6-1-1.2-1.3-1.9c-0.3-0.7-0.5-1.5-0.5-2.4s0.2-1.7,0.5-2.4c0.3-0.7,0.8-1.4,1.3-2
		c0.6-0.6,1.2-1,2-1.3C67,11.6,67.8,11.4,68.6,11.4"/>
	<path id="Fill-7_1_" class="st7" d="M84.9,7.9c1.2,0,2.2,0.2,3.2,0.7s1.9,1.1,2.6,1.9c0.1,0.1,0.2,0.2,0.2,0.3
		c0.1,0.1,0.1,0.3,0.1,0.5c0,0.4-0.1,0.7-0.3,0.9c-0.2,0.2-0.5,0.3-0.9,0.3c-0.3,0-0.5,0-0.6-0.1s-0.2-0.2-0.3-0.3
		c-0.5-0.6-1.1-1-1.8-1.4c-0.7-0.3-1.5-0.5-2.3-0.5s-1.5,0.1-2.2,0.4s-1.2,0.7-1.7,1.2s-0.9,1.1-1.2,1.8c-0.3,0.7-0.4,1.4-0.4,2.2
		c0,0.8,0.1,1.5,0.4,2.1c0.3,0.7,0.7,1.2,1.2,1.7s1.1,0.9,1.7,1.2c0.7,0.3,1.4,0.4,2.2,0.4c0.8,0,1.6-0.1,2.3-0.4
		c0.7-0.3,1.3-0.7,1.8-1.3c0.1-0.1,0.2-0.3,0.4-0.3c0.1-0.1,0.3-0.1,0.5-0.1c0.4,0,0.6,0.1,0.9,0.3c0.2,0.2,0.3,0.5,0.3,0.8
		c0,0.4-0.1,0.7-0.4,1C90,22,89.1,22.6,88.1,23c-1,0.5-2.1,0.7-3.2,0.7s-2.1-0.2-3.1-0.6s-1.8-1-2.5-1.7s-1.3-1.5-1.7-2.5
		c-0.4-1-0.6-2-0.6-3.1s0.2-2.1,0.6-3.1s1-1.8,1.7-2.5s1.5-1.3,2.5-1.7S83.8,7.9,84.9,7.9"/>
	<path id="Fill-9_1_" class="st7" d="M96.2,12.7c0.4-0.4,0.8-0.7,1.3-0.9s1.1-0.3,1.7-0.3c0.8,0,1.5,0.1,2.1,0.4s1.2,0.7,1.6,1.1
		c0.4,0.5,0.8,1.1,1,1.7s0.4,1.4,0.4,2.1v5.6c0,0.4-0.1,0.7-0.3,0.9c-0.2,0.2-0.5,0.3-0.9,0.3s-0.6-0.1-0.9-0.3
		c-0.2-0.2-0.3-0.5-0.3-0.9v-5.6c0-0.4-0.1-0.8-0.2-1.2c-0.1-0.4-0.3-0.7-0.5-0.9c-0.2-0.3-0.5-0.5-0.9-0.6
		c-0.3-0.2-0.7-0.2-1.2-0.2c-0.4,0-0.8,0.1-1.2,0.2c-0.4,0.2-0.7,0.4-0.9,0.6c-0.3,0.3-0.5,0.6-0.6,0.9c-0.1,0.4-0.2,0.8-0.2,1.2
		v5.6c0,0.4-0.1,0.7-0.3,0.9c-0.2,0.2-0.5,0.3-0.9,0.3c-0.3,0-0.6-0.1-0.9-0.3c-0.2-0.2-0.4-0.5-0.4-0.9V8.2c0-0.4,0.1-0.7,0.4-0.9
		C94.3,7.1,94.6,7,94.9,7c0.4,0,0.7,0.1,0.9,0.3c0.2,0.2,0.3,0.5,0.3,0.9L96.2,12.7L96.2,12.7z"/>
	<path id="Fill-11_1_" class="st7" d="M109.5,22.5c0,0.4-0.1,0.7-0.4,0.9c-0.2,0.2-0.6,0.3-1,0.3s-0.7-0.1-0.9-0.3
		c-0.3-0.2-0.4-0.5-0.4-0.9v-9.1c0-0.4,0.1-0.6,0.4-0.9c0.3-0.2,0.6-0.3,0.9-0.3c0.4,0,0.7,0.1,1,0.3c0.2,0.2,0.4,0.5,0.4,0.9V22.5z
		"/>
	<circle class="st7" cx="108.1" cy="9.9" r="1.4"/>
	<path class="st7" d="M118.5,11.4c-1.4,0-2.7,0.5-3.7,1.4c-0.1-0.6-0.6-1.1-1.2-1.1c-0.7,0-1.2,0.6-1.2,1.2v14.9
		c0,0.7,0.6,1.2,1.2,1.2s1.2-0.6,1.2-1.2v-5.2c1,0.8,2.3,1.4,3.7,1.4c3.3,0,6-2.8,6-6.3C124.4,14.2,121.8,11.4,118.5,11.4z
		 M118.5,21.5c-2,0-3.7-1.7-3.7-3.8l0,0c0-2.1,1.7-3.8,3.7-3.8s3.7,1.7,3.7,3.8S120.5,21.5,118.5,21.5z"/>
	<path class="st7" d="M14.1,0c-4.6,0.7-7.9,1.9-10,2.9C1.8,4,1.1,4.6,0.6,5L0,5.5c0,0,0.2,0.5,0.3,0.7c0.1,0.1,0.5,1.1,1.7,2
		c0.8,0.6,2.2,1.4,4.2,1.4c-0.4,1.5-0.6,3-0.6,4.6c0,3.9,1.3,7.6,3.6,10.4c1.1,1.3,2.3,2.3,3.6,3.1c0.2,0.1,0.4,0.2,0.6,0.3
		c1.2,0.6,2.6,0.9,3.9,1c0.3,0,0.7,0,1,0c3.2-0.1,6.2-1.7,8.5-4.4c2.3-2.8,3.6-6.5,3.6-10.4c0-1.6-0.2-3.1-0.6-4.6
		c0.1,0,0.2,0,0.3,0c1.9,0,3.2-0.7,4-1.4c1.1-0.9,1.6-1.6,1.7-2C35.9,6,36,5.5,36,5.5L35.4,5c-0.6-0.5-1.3-1.1-3.5-2.1
		c-2.1-1-5.5-2.3-10-2.8c-0.1,0-0.2,0-0.3,0h-0.2c-0.1,1.3-1.5,2.4-3.3,2.4c-1.8,0-3.3-1.1-3.3-2.5h-0.2L14.1,0z M6.7,7.3
		C6.7,7.3,6.7,7.3,6.7,7.3C6.4,7.4,6.2,7.4,6,7.4c0,0-0.1,0-0.1,0C4.5,7.4,3.3,6.8,2.7,6c0,0,0-0.1-0.1-0.1C2.6,5.9,4,5,6.1,4.1
		c0.9-0.4,2.2-0.8,3-1c0.5-0.1,0.8-0.2,0.8-0.2c0,0,0,0,0,0C9.8,2.9,9.6,3.2,9.4,3.5C9,4,8.4,4.6,8.2,5C7.8,5.4,7.1,6.8,6.7,7.3
		C6.7,7.3,6.7,7.3,6.7,7.3z M12,13c-0.8,4.7-1,8.4-0.6,10.9c-1.7-1.8-2.9-4.2-3.4-6.9c0,0,0-0.1,0-0.1c-0.1-0.4-0.1-0.8-0.2-1.2
		c0-0.1,0-0.1,0-0.2c0-0.4-0.1-0.8-0.1-1.3c0,0,0-0.1,0-0.1c0-0.5,0-1,0.1-1.5c0-0.1,0-0.2,0-0.4c0-0.4,0.1-0.7,0.2-1.1
		C8,11,8,10.9,8,10.8c0.1-0.4,0.2-0.8,0.3-1.2c0-0.1,0-0.1,0-0.2C8.5,9,8.7,8.5,8.9,8.1L9,7.9C9.3,7.2,9.6,6.6,10,6
		c1-1.6,2.4-2.8,3.9-3.6c0,0,0.1,0.1,0.1,0.1c0,0.1,0.1,0.1,0.1,0.2C14.1,2.8,14,3.1,14,3.3C13.5,5.3,12.6,9,12,13z M16,26.6
		c-0.7-0.2-1.4-0.5-2.1-0.8c-0.7-1.1-1.3-4.2,0-12.5c0.3-1.8,0.6-3.2,0.7-3.6c0.7-3.5,0.9-4.2,1.3-5.9C16.2,3.9,16.5,4,16.8,4
		C16.5,6,16,10.2,15.7,14.7C15.3,20.3,15.4,24.3,16,26.6z M18.3,26.8l-0.1-0.3c-0.4-1.2-1-4.2-0.4-11.8C18.1,10.3,18.7,6,19,4.1
		c0.3,0,0.6-0.1,0.9-0.2c-0.1,2-0.2,5.5-0.2,9.1c0,0.9,0,1.7,0,2.5c0.1,5.4,0.6,9,1.5,10.8C20.2,26.6,19.3,26.8,18.3,26.8z
		 M28.3,14.5c0,0.4,0,0.7-0.1,1.1c0,0.3-0.1,0.6-0.1,0.9c0,0.2-0.1,0.3-0.1,0.5c-0.7,3.6-2.6,6.7-5.2,8.4c-0.5-1.1-1.2-4.1-1.3-12.4
		c0-4.4,0.2-8.7,0.2-10.2c0.1-0.1,0.2-0.2,0.3-0.3c2,1.1,3.6,2.8,4.7,5l0.3,0.7c0.2,0.4,0.3,0.7,0.4,1.1c0.1,0.2,0.1,0.4,0.2,0.5
		c0.1,0.2,0.1,0.4,0.2,0.7c0.1,0.2,0.1,0.5,0.1,0.7c0,0.2,0.1,0.4,0.1,0.5c0,0.3,0.1,0.6,0.1,0.9c0,0.1,0,0.2,0,0.3
		c0,0.4,0,0.8,0,1.2C28.3,14.2,28.3,14.3,28.3,14.5z M33.3,6c-0.7,0.8-1.8,1.4-3.2,1.4c0,0-0.1,0-0.1,0c-0.2,0-0.5,0-0.7-0.1
		c0,0,0,0-0.1,0c0,0,0,0,0-0.1c-0.3-0.4-1.1-1.8-1.5-2.3c-0.2-0.3-0.8-1-1.2-1.5c-0.2-0.3-0.4-0.5-0.5-0.6c0,0,0,0,0,0
		c0,0,0.3,0,0.8,0.2c0.8,0.2,2.1,0.6,3,1C32,5,33.4,5.9,33.3,6C33.4,5.9,33.4,6,33.3,6z"/>
</g>
</svg>
